HIERARCHY
ROOT Hips
{
    OFFSET   0.000000   0.000000   0.000000
    CHANNELS 6 Xposition Yposition Zposition Zrotation Xrotation Yrotation
    JOINT Chest
    {
        OFFSET   0.000000   8.007230   0.000000
        CHANNELS 3 Zrotation Xrotation Yrotation
        JOINT Chest2
        {
            OFFSET   0.000000  22.077100   0.000000
            CHANNELS 3 Zrotation Xrotation Yrotation
            JOINT Neck
            {
                OFFSET   0.000000  23.255100   0.000000
                CHANNELS 3 Zrotation Xrotation Yrotation
                JOINT Head
                {
                    OFFSET   0.000000  14.370100   1.956600
                    CHANNELS 3 Zrotation Xrotation Yrotation
                    End Site
                    {
                        OFFSET   0.000000  19.566000   0.000000
                    }
                }
            }
            JOINT LeftCollar
            {
                OFFSET   3.911900  19.017000  -0.467063
                CHANNELS 3 Zrotation Xrotation Yrotation
                JOINT LeftShoulder
                {
                    OFFSET  10.383700   0.000000   0.000000
                    CHANNELS 3 Zrotation Xrotation Yrotation
                    JOINT LeftElbow
                    {
                        OFFSET  26.662100   0.001193   0.000980
                        CHANNELS 3 Zrotation Xrotation Yrotation
                        JOINT LeftWrist
                        {
                            OFFSET  28.869000  -0.000059  -0.000082
                            CHANNELS 3 Zrotation Xrotation Yrotation
                            JOINT LeftFinger0
                            {
                                OFFSET   2.044650  -2.323450   3.252850
                                CHANNELS 3 Zrotation Xrotation Yrotation
                                JOINT LeftFinger01
                                {
                                    OFFSET   3.088130   0.000000   0.000000
                                    CHANNELS 3 Zrotation Xrotation Yrotation
                                    JOINT LeftFinger02
                                    {
                                        OFFSET   2.639460   0.000000   0.000000
                                        CHANNELS 3 Zrotation Xrotation Yrotation
                                        End Site
                                        {
                                            OFFSET   2.582190   0.000000   0.000000
                                        }
                                    }
                                }
                            }
                            JOINT LeftFinger1
                            {
                                OFFSET   8.364480   0.000000   3.252850
                                CHANNELS 3 Zrotation Xrotation Yrotation
                                JOINT LeftFinger11
                                {
                                    OFFSET   4.646930   0.000000   0.000000
                                    CHANNELS 3 Zrotation Xrotation Yrotation
                                    JOINT LeftFinger12
                                    {
                                        OFFSET   2.323470   0.000000   0.000000
                                        CHANNELS 3 Zrotation Xrotation Yrotation
                                        End Site
                                        {
                                            OFFSET   2.273050   0.000000   0.000000
                                        }
                                    }
                                }
                            }
                            JOINT LeftFinger2
                            {
                                OFFSET   8.364490   0.000016   1.078090
                                CHANNELS 3 Zrotation Xrotation Yrotation
                                JOINT LeftFinger21
                                {
                                    OFFSET   5.111610   0.000000   0.000000
                                    CHANNELS 3 Zrotation Xrotation Yrotation
                                    JOINT LeftFinger22
                                    {
                                        OFFSET   2.788150   0.000016   0.000000
                                        CHANNELS 3 Zrotation Xrotation Yrotation
                                        End Site
                                        {
                                            OFFSET   2.727660   0.000000   0.000000
                                        }
                                    }
                                }
                            }
                            JOINT LeftFinger3
                            {
                                OFFSET   7.899780   0.000015  -1.078090
                                CHANNELS 3 Zrotation Xrotation Yrotation
                                JOINT LeftFinger31
                                {
                                    OFFSET   4.646930   0.000000   0.000000
                                    CHANNELS 3 Zrotation Xrotation Yrotation
                                    JOINT LeftFinger32
                                    {
                                        OFFSET   2.323470   0.000000   0.000000
                                        CHANNELS 3 Zrotation Xrotation Yrotation
                                        End Site
                                        {
                                            OFFSET   2.273050   0.000000   0.000000
                                        }
                                    }
                                }
                            }
                            JOINT LeftFinger4
                            {
                                OFFSET   7.435090   0.000000  -3.252850
                                CHANNELS 3 Zrotation Xrotation Yrotation
                                JOINT LeftFinger41
                                {
                                    OFFSET   3.717550   0.000000   0.000000
                                    CHANNELS 3 Zrotation Xrotation Yrotation
                                    JOINT LeftFinger42
                                    {
                                        OFFSET   1.858770   0.000000   0.000000
                                        CHANNELS 3 Zrotation Xrotation Yrotation
                                        End Site
                                        {
                                            OFFSET   1.818440   0.000000   0.000000
                                        }
                                    }
                                }
                            }
                        }
                    }
                }
            }
            JOINT RightCollar
            {
                OFFSET  -3.911910  19.017000  -0.467062
                CHANNELS 3 Zrotation Xrotation Yrotation
                JOINT RightShoulder
                {
                    OFFSET -10.383700   0.000014   0.000000
                    CHANNELS 3 Zrotation Xrotation Yrotation
                    JOINT RightElbow
                    {
                        OFFSET -26.662100   0.001225   0.001091
                        CHANNELS 3 Zrotation Xrotation Yrotation
                        JOINT RightWrist
                        {
                            OFFSET -28.869000  -0.000020  -0.000085
                            CHANNELS 3 Zrotation Xrotation Yrotation
                            JOINT RightFinger0
                            {
                                OFFSET  -2.044650  -2.323490   3.252850
                                CHANNELS 3 Zrotation Xrotation Yrotation
                                JOINT RightFinger01
                                {
                                    OFFSET  -3.088130   0.000000   0.000000
                                    CHANNELS 3 Zrotation Xrotation Yrotation
                                    JOINT RightFinger02
                                    {
                                        OFFSET  -2.639460   0.000000   0.000000
                                        CHANNELS 3 Zrotation Xrotation Yrotation
                                        End Site
                                        {
                                            OFFSET  -2.582190   0.000000   0.000000
                                        }
                                    }
                                }
                            }
                            JOINT RightFinger1
                            {
                                OFFSET  -8.364480   0.000000   3.252850
                                CHANNELS 3 Zrotation Xrotation Yrotation
                                JOINT RightFinger11
                                {
                                    OFFSET  -4.646930   0.000000   0.000000
                                    CHANNELS 3 Zrotation Xrotation Yrotation
                                    JOINT RightFinger12
                                    {
                                        OFFSET  -2.323470   0.000000   0.000000
                                        CHANNELS 3 Zrotation Xrotation Yrotation
                                        End Site
                                        {
                                            OFFSET  -2.273050   0.000000   0.000000
                                        }
                                    }
                                }
                            }
                            JOINT RightFinger2
                            {
                                OFFSET  -8.364480   0.000000   1.078090
                                CHANNELS 3 Zrotation Xrotation Yrotation
                                JOINT RightFinger21
                                {
                                    OFFSET  -5.111620   0.000000   0.000000
                                    CHANNELS 3 Zrotation Xrotation Yrotation
                                    JOINT RightFinger22
                                    {
                                        OFFSET  -2.788160   0.000000   0.000000
                                        CHANNELS 3 Zrotation Xrotation Yrotation
                                        End Site
                                        {
                                            OFFSET  -2.727660   0.000000   0.000000
                                        }
                                    }
                                }
                            }
                            JOINT RightFinger3
                            {
                                OFFSET  -7.899780   0.000000  -1.078090
                                CHANNELS 3 Zrotation Xrotation Yrotation
                                JOINT RightFinger31
                                {
                                    OFFSET  -4.646930   0.000000   0.000000
                                    CHANNELS 3 Zrotation Xrotation Yrotation
                                    JOINT RightFinger32
                                    {
                                        OFFSET  -2.323470   0.000000   0.000000
                                        CHANNELS 3 Zrotation Xrotation Yrotation
                                        End Site
                                        {
                                            OFFSET  -2.273050   0.000000   0.000000
                                        }
                                    }
                                }
                            }
                            JOINT RightFinger4
                            {
                                OFFSET  -7.435090   0.000000  -3.252850
                                CHANNELS 3 Zrotation Xrotation Yrotation
                                JOINT RightFinger41
                                {
                                    OFFSET  -3.717550   0.000000   0.000000
                                    CHANNELS 3 Zrotation Xrotation Yrotation
                                    JOINT RightFinger42
                                    {
                                        OFFSET  -1.858760   0.000000   0.000000
                                        CHANNELS 3 Zrotation Xrotation Yrotation
                                        End Site
                                        {
                                            OFFSET  -1.818440   0.000000   0.000000
                                        }
                                    }
                                }
                            }
                        }
                    }
                }
            }
        }
    }
    JOINT LeftHip
    {
        OFFSET   9.783030   0.000000   0.000000
        CHANNELS 3 Zrotation Xrotation Yrotation
        JOINT LeftKnee
        {
            OFFSET   0.000063 -41.789100   0.000608
            CHANNELS 3 Zrotation Xrotation Yrotation
            JOINT LeftAnkle
            {
                OFFSET   0.000048 -41.133200  -0.000184
                CHANNELS 3 Zrotation Xrotation Yrotation
                JOINT LeftToe
                {
                    OFFSET   0.000000  -6.358960  14.674500
                    CHANNELS 3 Zrotation Xrotation Yrotation
                    End Site
                    {
                        OFFSET   0.000000   0.000000   3.913200
                    }
                }
            }
        }
    }
    JOINT RightHip
    {
        OFFSET  -9.783030   0.000000   0.000000
        CHANNELS 3 Zrotation Xrotation Yrotation
        JOINT RightKnee
        {
            OFFSET   0.000071 -41.789100   0.001239
            CHANNELS 3 Zrotation Xrotation Yrotation
            JOINT RightAnkle
            {
                OFFSET   0.000037 -41.133200  -0.000166
                CHANNELS 3 Zrotation Xrotation Yrotation
                JOINT RightToe
                {
                    OFFSET   0.000000  -6.358960  14.674500
                    CHANNELS 3 Zrotation Xrotation Yrotation
                    End Site
                    {
                        OFFSET   0.000000   0.000000   3.913200
                    }
                }
            }
        }
    }
}
MOTION
Frames: 4
Frame Time:   0.016667
 -0.172512  89.617500  -0.281541   0.067704 -10.235800   4.345000  -0.059135   8.841260  -0.721505  -0.004076  17.682600  -1.460250   5.686390   5.716180  -0.566457   9.544710  11.248500 -18.426800  -5.513090   1.013520  11.815000 -77.659100  13.102400  -8.524760  -1.233110  -4.173710 -15.598200  12.789400  -7.447310   1.277450  39.245000  35.506900 -55.894500 -35.687400  -0.005463  -0.004524 -13.031300  -0.003439  -0.012174 -37.334600   0.713164  -0.934923 -30.551200  -0.001435  -0.010714 -21.385800  -0.001009  -0.005592 -33.257800  -3.652960   5.550710 -50.152500  -0.033813  -0.112958 -33.401500   0.005411  -0.076888 -28.374900  -4.874990   8.940970 -40.446600  -0.023098  -0.078712 -26.937400   0.007621  -0.054364 -36.411700  -6.081050   8.172660 -55.269600  -0.019551  -0.103898 -36.809500   0.018786  -0.067607   3.365100   1.367810  10.627600  54.671700   0.457937  33.268900 -24.347000  -1.275510  68.291300  43.486500  43.527200 -43.652900 -41.801100  38.402100  73.609700  30.486000   0.045632  -0.027077  10.243000   0.022152   0.003090  -6.376420  -0.470245   2.874110   0.000014   0.014448   0.003723  -0.188894   0.008406   0.003070  -7.572280  -0.509001   1.641540   0.000031   0.007926   0.004148  -0.177557   0.010604   0.004099  -7.704910   0.800440  -7.530610  -0.000001   0.009548   0.006386  -0.201862   0.006500   0.003434   0.815088  -0.299198 -13.592000   1.348610  -0.009367  -0.039462   0.898165  -0.007657  -0.029787   3.216370  10.170300  -0.500494   0.597872   1.308530  10.818900  -3.033310  -2.117820  -0.106359  -0.000000   0.000000   0.000000  -1.578840  11.830300  -7.806700   1.056490   1.991710 -13.997000  -0.004712  -2.978990   1.342800  -0.000000   0.000000   0.000000
 -0.160679  89.610000  -0.330273   0.019001 -10.212700   4.053070  -0.081072   8.857660  -0.875544  -0.023633  17.715600  -1.770600   5.750200   5.647260  -0.567702   9.696030  11.105100 -19.407700  -5.500900   1.155490  11.723000 -77.501400  13.225300  -8.492220  -1.268880  -4.075350 -16.072400  12.720300  -7.475460   1.174840  39.413200  35.733900 -56.026600 -35.643800  -0.002042  -0.001365 -13.001300  -0.003443  -0.001709 -37.307500   0.700036  -0.918303 -30.528900  -0.001546  -0.015427 -21.370200  -0.001010  -0.011626 -33.243800  -3.652350   5.553770 -50.131400  -0.035303  -0.075494 -33.387400  -0.004910  -0.055365 -28.372800  -4.871860   8.936510 -40.366000  -0.023633  -0.056772 -26.883700   0.003122  -0.040935 -36.403500  -6.076130   8.169300 -55.257000  -0.021604  -0.062308 -36.801200   0.006165  -0.043518   3.280470   1.368630  10.529900  54.320000   0.373975  32.800100 -25.879200  -1.013770  67.089200  35.561200  49.369900 -39.748200 -41.693800  38.786600  73.429200  31.058100   0.052221  -0.031308  10.529000   0.025403   0.003103  -7.366150  -0.552926   5.084280   0.000120   0.014761   0.000844  -0.026146   0.007491   0.000614  -8.924720  -0.583225   4.635110   0.000063  -0.000739   0.000704  -0.001967   0.009130   0.004188  -8.449150   0.854482  -4.684270   0.000000  -0.000240   0.006268  -0.000435  -0.000155   0.003440   0.466691  -0.033737 -11.419400   0.721973   0.034246  -0.013775   0.480838   0.022415  -0.010191   3.223100  10.180600  -0.463190   0.571586   1.277130  10.931100  -3.030500  -2.096900   0.027705  -0.000000   0.000000   0.000000  -1.627040  11.725000  -7.751210   1.079190   2.029340 -13.990700  -0.006598  -2.944450   1.565880   0.000000   0.000000  -0.000000
 -0.156446  89.598800  -0.382783  -0.033394 -10.172600   3.736440  -0.082635   8.866760  -1.008260  -0.005242  17.734100  -2.040790   5.749270   5.566730  -0.562667   9.743410  10.944400 -20.291400  -5.531820   1.284290  11.565200 -77.283300  13.335100  -8.518330  -1.333200  -3.971800 -16.465100  12.659500  -7.367440   1.071570  39.572100  35.910400 -56.104500 -35.597300  -0.002740   0.002128 -12.969100  -0.003446   0.002619 -37.270900   0.700476  -0.919205 -30.499200  -0.001581  -0.016647 -21.349400  -0.001010  -0.012658 -33.222000  -3.651750   5.559540 -50.099000  -0.045714  -0.067506 -33.365800  -0.015198  -0.053019 -28.371200  -4.860680   8.917260 -40.275100  -0.010110  -0.026745 -26.823200   0.002192  -0.018614 -36.383000  -6.059810   8.153760 -55.223400   0.008200  -0.004300 -36.778900   0.008573   0.000883   3.242890   1.294860  10.292000  54.132900   0.100799  32.450500 -26.833700  -1.089450  66.045100  23.916100  52.434200 -30.918900 -40.387000  37.273100  71.471900  32.006100   0.031034  -0.020014  11.003100   0.013846   0.003108  -5.421220  -0.441640   5.372670   0.077099   0.014725   0.000743   0.069071   0.006077  -0.003858  -6.760930  -0.502916   5.177590   0.000032  -0.000798  -0.000286  -0.012974   0.007057   0.004354  -6.176880   0.574721  -4.506980   0.000010  -0.000599   0.005984  -0.006653  -0.000404   0.003408   1.491080  -0.259955 -11.405100   2.286210   0.028843  -0.023718   1.522610   0.018358  -0.016648   3.223460  10.185700  -0.444334   0.546699   1.230000  11.081600  -3.024960  -2.075340   0.169750  -0.000000   0.000000   0.000000  -1.676780  11.599200  -7.778330   1.102850   2.063730 -13.951200  -0.005819  -2.910210   1.853910  -0.000000   0.000000  -0.000000
 -0.155841  89.585000  -0.430051  -0.093836 -10.119900   3.388850  -0.073962   8.869570  -1.136140   0.033240  17.738900  -2.302790   5.747590   5.493290  -0.552060   9.679060  10.803700 -21.013200  -5.561750   1.413340  11.395700 -77.043900  13.436000  -8.565290  -1.391720  -3.866740 -16.799300  12.622000  -7.165940   0.967473  39.652800  36.029100 -56.110300 -35.552700  -0.004145   0.004266 -12.939300  -0.003448   0.003988 -37.230400   0.703558  -0.925513 -30.466200  -0.001586  -0.016822 -21.326400  -0.001010  -0.012805 -33.198900  -3.651150   5.565800 -50.064600  -0.053891  -0.062482 -33.342900  -0.020938  -0.050672 -28.370300  -4.844800   8.888550 -40.181500   0.008623   0.001358 -26.760900   0.001932   0.002950 -36.358700  -6.036570   8.129960 -55.182900   0.038536   0.037991 -36.751800   0.010982   0.034232   3.211070   1.221080  10.017400  54.155600  -0.524645  32.246600 -27.433000  -1.146080  65.487900  12.899600  54.622100 -21.439000 -38.336000  35.025100  69.375500  32.853600   0.004613  -0.004593  11.426800   0.001758   0.003113  -2.378890  -0.247956   5.413780   0.266050   0.014470   0.000728   0.186245   0.004464  -0.006946  -3.362950  -0.340254   5.254990  -0.000000  -0.000807  -0.000550  -0.023981   0.004734   0.004501  -2.766380   0.181235  -4.481490   0.000083  -0.000713   0.005601  -0.012870  -0.000482   0.003346   3.101250  -0.628808 -11.403600   4.745770   0.019362  -0.033660   3.160670   0.011579  -0.023104   3.224630  10.193700  -0.430878   0.521016   1.165010  11.258400  -3.017130  -2.050680   0.322551  -0.000000   0.000000   0.000000  -1.722980  11.468600  -7.820580   1.124980   2.084130 -13.876200  -0.008122  -2.869400   2.161100  -0.000000   0.000000  -0.000000
